{
  "streams": [
    {
      "index": 0,
      "codec_name": "aac",
      "codec_long_name": "AAC (Advanced Audio Coding)",
      "profile": "LC",
      "codec_type": "audio",
      "codec_tag_string": "mp4a",
      "codec_tag": "0x6134706d",
      "sample_fmt": "s16",
      "sample_rate": "22050",
      "channels": 1,
      "channel_layout": "mono",
      "bits_per_sample": 0,
      "initial_padding": 0,
      "id": "0x1",
      "r_frame_rate": "0/0",
      "avg_frame_rate": "0/0",
      "time_base": "1/22050",
      "start_pts": 0,
      "start_time": "0.000000",
      "duration_ts": 670026432,
      "duration": "30386.686259",
      "bit_rate": "64010",
      "nb_frames": "654430",
      "extradata_size": 4,
      "disposition": {
        "default": 1,
        "dub": 0,
        "original": 0,
        "comment": 0,
        "lyrics": 0,
        "karaoke": 0,
        "forced": 0,
        "hearing_impaired": 0,
        "visual_impaired": 0,
        "clean_effects": 0,
        "attached_pic": 0,
        "timed_thumbnails": 0,
        "non_diegetic": 0,
        "captions": 0,
        "descriptions": 0,
        "metadata": 0,
        "dependent": 0,
        "still_image": 0,
        "multilayer": 0
      },
      "tags": {
        "language": "und",
        "handler_name": "SoundHandler",
        "vendor_id": "[0][0][0][0]"
      }
    },
    {
      "index": 1,
      "codec_name": "bin_data",
      "codec_long_name": "binary data",
      "codec_type": "data",
      "codec_tag_string": "text",
      "codec_tag": "0x74786574",
      "id": "0x2",
      "r_frame_rate": "0/0",
      "avg_frame_rate": "0/0",
      "time_base": "1/1000",
      "start_pts": 0,
      "start_time": "0.000000",
      "duration_ts": 30386000,
      "duration": "30386.000000",
      "nb_frames": "36",
      "extradata_size": 43,
      "disposition": {
        "default": 1,
        "dub": 0,
        "original": 0,
        "comment": 0,
        "lyrics": 0,
        "karaoke": 0,
        "forced": 0,
        "hearing_impaired": 0,
        "visual_impaired": 0,
        "clean_effects": 0,
        "attached_pic": 0,
        "timed_thumbnails": 0,
        "non_diegetic": 0,
        "captions": 0,
        "descriptions": 0,
        "metadata": 0,
        "dependent": 0,
        "still_image": 0,
        "multilayer": 0
      },
      "tags": {
        "creation_time": "2025-05-08T14:31:07.000000Z",
        "language": "und",
        "handler_name": "Chapter titles"
      }
    },
    {
      "index": 2,
      "codec_name": "png",
      "codec_long_name": "PNG (Portable Network Graphics) image",
      "codec_type": "video",
      "codec_tag_string": "[0][0][0][0]",
      "codec_tag": "0x0000",
      "width": 2400,
      "height": 2400,
      "coded_width": 2400,
      "coded_height": 2400,
      "closed_captions": 0,
      "film_grain": 0,
      "has_b_frames": 0,
      "pix_fmt": "rgb24",
      "level": -99,
      "color_range": "pc",
      "color_space": "gbr",
      "refs": 1,
      "id": "0x0",
      "r_frame_rate": "90000/1",
      "avg_frame_rate": "0/0",
      "time_base": "1/90000",
      "start_pts": 0,
      "start_time": "0.000000",
      "duration_ts": 2734801763,
      "duration": "30386.686256",
      "disposition": {
        "default": 0,
        "dub": 0,
        "original": 0,
        "comment": 0,
        "lyrics": 0,
        "karaoke": 0,
        "forced": 0,
        "hearing_impaired": 0,
        "visual_impaired": 0,
        "clean_effects": 0,
        "attached_pic": 1,
        "timed_thumbnails": 0,
        "non_diegetic": 0,
        "captions": 0,
        "descriptions": 0,
        "metadata": 0,
        "dependent": 0,
        "still_image": 0,
        "multilayer": 0
      }
    }
  ],
  "format": {
    "filename": "Book.m4b",
    "nb_streams": 3,
    "nb_programs": 0,
    "nb_stream_groups": 0,
    "format_name": "mov,mp4,m4a,3gp,3g2,mj2",
    "format_long_name": "QuickTime / MOV",
    "start_time": "0.000000",
    "duration": "30386.686259",
    "size": "249864305",
    "bit_rate": "65782",
    "probe_score": 100,
    "tags": {
      "major_brand": "M4A ",
      "minor_version": "512",
      "compatible_brands": "M4A isomiso2",
      "title": "Title",
      "album": "Album",
      "encoder": "Lavf61.7.100",
      "media_type": "2",
      "gapless_playback": "1"
    }
  }
}
